<svg xmlns="http://www.w3.org/2000/svg" viewBox="12 2 340 76" width="1020" height="228">
  <defs>
    <linearGradient id="amBg" x1="0" y1="0" x2="1" y2="1">
      <stop offset="0%" stop-color="#00695C"/>
      <stop offset="100%" stop-color="#004D40"/>
    </linearGradient>
    <linearGradient id="amUmb" x1="0.5" y1="0" x2="0.5" y2="1">
      <stop offset="0%" stop-color="#80CBC4"/>
      <stop offset="100%" stop-color="#4DB6AC"/>
    </linearGradient>
    <linearGradient id="amLine" x1="0" y1="0" x2="1" y2="0">
      <stop offset="0%" stop-color="#80CBC4" stop-opacity="0.8"/>
      <stop offset="100%" stop-color="#80CBC4" stop-opacity="0"/>
    </linearGradient>
    <radialGradient id="amGlow" cx="0.5" cy="0.35" r="0.5">
      <stop offset="0%" stop-color="#80CBC4" stop-opacity="0.2"/>
      <stop offset="100%" stop-color="#80CBC4" stop-opacity="0"/>
    </radialGradient>
  </defs>
  <!-- Icon square -->
  <rect x="14" y="4" width="72" height="72" rx="12" fill="url(#amBg)"/>
  <circle cx="50" cy="30" r="24" fill="url(#amGlow)"/>
  <!-- Umbrella dome -->
  <path d="M30 42 C30 28 38 18 50 18 C62 18 70 28 70 42 Z" fill="url(#amUmb)" opacity="0.2"/>
  <path d="M32 42 C32 29.5 39 20 50 20 C61 20 68 29.5 68 42" fill="none" stroke="url(#amUmb)" stroke-width="2" stroke-linecap="round"/>
  <!-- Ribs -->
  <path d="M50 20 L50 42" stroke="#80CBC4" stroke-width="0.8" opacity="0.4"/>
  <path d="M41 24 L38 42" stroke="#80CBC4" stroke-width="0.5" opacity="0.3"/>
  <path d="M59 24 L62 42" stroke="#80CBC4" stroke-width="0.5" opacity="0.3"/>
  <!-- Handle -->
  <line x1="50" y1="42" x2="50" y2="58" stroke="#80CBC4" stroke-width="1.8" stroke-linecap="round"/>
  <path d="M50 58 C50 61 47 63 45 61" fill="none" stroke="#80CBC4" stroke-width="1.8" stroke-linecap="round"/>
  <!-- Accent bar -->
  <rect x="14" y="66" width="72" height="10" fill="url(#amUmb)" opacity="0.25" clip-path="inset(0 0 0 0 round 0 0 12 12)"/>
  <!-- Company name -->
  <text x="102" y="34" font-family="'Segoe UI',system-ui,sans-serif" font-size="26" font-weight="700" fill="#00695C">Aegis Life</text>
  <!-- Subtitle -->
  <text x="102" y="52" font-family="'Segoe UI',system-ui,sans-serif" font-size="14" font-weight="300" fill="#00695C" opacity="0.7">Aegis Life</text>
  <!-- Decorative line -->
  <line x1="102" y1="60" x2="350" y2="60" stroke="url(#amLine)" stroke-width="1"/>
  <!-- Tagline -->
  <text x="102" y="73" font-family="'Segoe UI',system-ui,sans-serif" font-size="10" font-weight="300" fill="#00695C" opacity="0.5">Life · Health · Disability · Long-Term Care</text>
</svg>