<svg xmlns="http://www.w3.org/2000/svg" viewBox="12 12 416 76" width="1248" height="228">
  <defs>
    <linearGradient id="bmg" x1="0" y1="0" x2="0" y2="1">
      <stop offset="0%" stop-color="#546E7A"/>
      <stop offset="100%" stop-color="#263238"/>
    </linearGradient>
    <linearGradient id="bmgl" x1="0" y1="0" x2="1" y2="0">
      <stop offset="0%" stop-color="#B0BEC5" stop-opacity="0.5"/>
      <stop offset="40%" stop-color="#26A69A" stop-opacity="0.6"/>
      <stop offset="100%" stop-color="#26A69A" stop-opacity="0"/>
    </linearGradient>
  </defs>
  <rect x="14" y="14" width="72" height="72" rx="14" fill="url(#bmg)"/>
  <rect x="24" y="24" width="32" height="42" rx="4" fill="none" stroke="#90A4AE" stroke-width="2"/>
  <rect x="36" y="18" width="32" height="42" rx="4" fill="#455A64"/>
  <line x1="42" y1="28" x2="60" y2="28" stroke="#B0BEC5" stroke-width="1.8" stroke-linecap="round"/>
  <line x1="42" y1="35" x2="56" y2="35" stroke="#B0BEC5" stroke-width="1.8" stroke-linecap="round"/>
  <line x1="42" y1="42" x2="60" y2="42" stroke="#26A69A" stroke-width="1.8" stroke-linecap="round"/>
  <line x1="42" y1="49" x2="53" y2="49" stroke="#26A69A" stroke-width="1.8" stroke-linecap="round"/>
  <circle cx="62" cy="62" r="14" fill="#26A69A" stroke="#263238" stroke-width="1.5"/>
  <path d="M55 62 L59 56 L63 62 L67 57" fill="none" stroke="#fff" stroke-width="1.8" stroke-linecap="round" stroke-linejoin="round"/>
  <text x="102" y="42" font-family="'Segoe UI',system-ui,sans-serif" font-weight="700" font-size="30" fill="#37474F" letter-spacing="-0.5">Blue</text>
  <text x="170" y="42" font-family="'Segoe UI',system-ui,sans-serif" font-weight="700" font-size="30" fill="#26A69A" letter-spacing="-0.5">Print</text>
  <text x="102" y="64" font-family="'Segoe UI',system-ui,sans-serif" font-weight="400" font-size="14" fill="#78909C">Architecture · Engineering · Design Studio</text>
  <rect x="102" y="72" width="260" height="1.5" rx="0.75" fill="url(#bmgl)"/>
</svg>
