<svg xmlns="http://www.w3.org/2000/svg" viewBox="14 16 421 112" width="1263" height="336">
  <defs>
    <linearGradient id="blg" x1="0" y1="0" x2="0" y2="1">
      <stop offset="0%" stop-color="#546E7A"/>
      <stop offset="100%" stop-color="#263238"/>
    </linearGradient>
    <linearGradient id="blgl" x1="0" y1="0" x2="1" y2="0">
      <stop offset="0%" stop-color="#B0BEC5" stop-opacity="0.5"/>
      <stop offset="40%" stop-color="#26A69A" stop-opacity="0.6"/>
      <stop offset="100%" stop-color="#26A69A" stop-opacity="0"/>
    </linearGradient>
  </defs>
  <rect x="16" y="18" width="100" height="108" rx="20" fill="url(#blg)"/>
  <rect x="30" y="32" width="42" height="58" rx="5" fill="none" stroke="#90A4AE" stroke-width="2.5"/>
  <rect x="46" y="24" width="42" height="58" rx="5" fill="#455A64"/>
  <line x1="54" y1="36" x2="78" y2="36" stroke="#B0BEC5" stroke-width="2" stroke-linecap="round"/>
  <line x1="54" y1="44" x2="72" y2="44" stroke="#B0BEC5" stroke-width="2" stroke-linecap="round"/>
  <line x1="54" y1="52" x2="78" y2="52" stroke="#26A69A" stroke-width="2" stroke-linecap="round"/>
  <line x1="54" y1="60" x2="68" y2="60" stroke="#26A69A" stroke-width="2" stroke-linecap="round"/>
  <line x1="54" y1="68" x2="76" y2="68" stroke="#26A69A" stroke-width="2" stroke-linecap="round"/>
  <circle cx="82" cy="94" r="20" fill="#26A69A" stroke="#263238" stroke-width="2"/>
  <path d="M72 94 L77 84 L82 94 L87 86" fill="none" stroke="#fff" stroke-width="2.5" stroke-linecap="round" stroke-linejoin="round"/>
  <text x="136" y="66" font-family="'Segoe UI',system-ui,sans-serif" font-weight="700" font-size="48" fill="#37474F" letter-spacing="-1">Blue</text>
  <text x="244" y="66" font-family="'Segoe UI',system-ui,sans-serif" font-weight="700" font-size="48" fill="#26A69A" letter-spacing="-1">Print</text>
  <text x="136" y="92" font-family="'Segoe UI',system-ui,sans-serif" font-weight="300" font-size="18" fill="#26A69A" letter-spacing="4">DESIGN STUDIO</text>
  <line x1="136" y1="102" x2="370" y2="102" stroke="url(#blgl)" stroke-width="2"/>
  <text x="136" y="120" font-family="'Segoe UI',system-ui,sans-serif" font-weight="400" font-size="12" fill="#90A4AE">Architecture · Engineering · Digital Planning</text>
</svg>
