<svg xmlns="http://www.w3.org/2000/svg" viewBox="12 12 408 76" width="1224" height="228">
  <defs>
    <linearGradient id="gmg" x1="0" y1="0" x2="0.3" y2="1">
      <stop offset="0%" stop-color="#66BB6A"/>
      <stop offset="100%" stop-color="#1B5E20"/>
    </linearGradient>
  </defs>
  <circle cx="50" cy="50" r="36" fill="url(#gmg)"/>
  <path d="M50 16 Q70 28 68 50 Q62 42 50 40 Q38 42 32 50 Q30 28 50 16Z" fill="#C8E6C9" fill-opacity="0.85"/>
  <path d="M50 26 Q62 34 60 48 Q56 43 50 42 Q44 43 40 48 Q38 34 50 26Z" fill="#fff" fill-opacity="0.65"/>
  <line x1="50" y1="40" x2="50" y2="78" stroke="#fff" stroke-width="2.5" stroke-linecap="round" opacity="0.5"/>
  <path d="M42 62 Q50 56 58 62" fill="none" stroke="#fff" stroke-width="1.5" opacity="0.4"/>
  <text x="102" y="42" font-family="'Segoe UI',system-ui,sans-serif" font-weight="700" font-size="32" fill="#1B5E20" letter-spacing="-0.5">GreenLeaf</text>
  <text x="102" y="64" font-family="'Segoe UI',system-ui,sans-serif" font-weight="400" font-size="14" fill="#4CAF50">Sustainable Innovation &amp; Clean Technology</text>
  <rect x="102" y="72" width="280" height="1.5" rx="0.75" fill="#C8E6C9"/>
</svg>
