<svg xmlns="http://www.w3.org/2000/svg" viewBox="12 2 356 76" width="1068" height="228">
  <defs>
    <linearGradient id="hmBg" x1="0" y1="0" x2="1" y2="1">
      <stop offset="0%" stop-color="#880E4F"/>
      <stop offset="100%" stop-color="#4A0028"/>
    </linearGradient>
    <linearGradient id="hmAnc" x1="0.5" y1="0" x2="0.5" y2="1">
      <stop offset="0%" stop-color="#F48FB1"/>
      <stop offset="100%" stop-color="#EC407A"/>
    </linearGradient>
    <linearGradient id="hmLine" x1="0" y1="0" x2="1" y2="0">
      <stop offset="0%" stop-color="#F48FB1" stop-opacity="0.8"/>
      <stop offset="100%" stop-color="#F48FB1" stop-opacity="0"/>
    </linearGradient>
    <filter id="hmSh" x="-10%" y="-10%" width="120%" height="120%">
      <feDropShadow dx="0" dy="0.8" stdDeviation="1.2" flood-color="#2A0016" flood-opacity="0.5"/>
    </filter>
  </defs>
  <!-- Icon square -->
  <rect x="14" y="4" width="72" height="72" rx="12" fill="url(#hmBg)"/>
  <g filter="url(#hmSh)">
    <circle cx="50" cy="20" r="5" fill="none" stroke="url(#hmAnc)" stroke-width="1.8"/>
    <line x1="50" y1="25" x2="50" y2="55" stroke="url(#hmAnc)" stroke-width="2" stroke-linecap="round"/>
    <line x1="39" y1="33" x2="61" y2="33" stroke="url(#hmAnc)" stroke-width="1.8" stroke-linecap="round"/>
    <path d="M34 48 C34 54 41 58 50 55" fill="none" stroke="url(#hmAnc)" stroke-width="1.8" stroke-linecap="round"/>
    <path d="M66 48 C66 54 59 58 50 55" fill="none" stroke="url(#hmAnc)" stroke-width="1.8" stroke-linecap="round"/>
    <path d="M32 47 L34 48 L34 51" fill="none" stroke="#F48FB1" stroke-width="1.5" stroke-linecap="round" stroke-linejoin="round"/>
    <path d="M68 47 L66 48 L66 51" fill="none" stroke="#F48FB1" stroke-width="1.5" stroke-linecap="round" stroke-linejoin="round"/>
  </g>
  <rect x="14" y="66" width="72" height="10" fill="url(#hmAnc)" opacity="0.25" clip-path="inset(0 0 0 0 round 0 0 12 12)"/>
  <!-- Company name with dark shadow -->
  <text x="102" y="34" font-family="'Segoe UI',system-ui,sans-serif" font-size="26" font-weight="700" fill="#4A0028">Harbor Re</text>
  <text x="102" y="34" font-family="'Segoe UI',system-ui,sans-serif" font-size="26" font-weight="700" fill="#6A0039">Harbor Re</text>
  <!-- Subtitle -->
  <text x="102" y="52" font-family="'Segoe UI',system-ui,sans-serif" font-size="14" font-weight="300" fill="#6A0039" opacity="0.8">Harbor Re</text>
  <!-- Decorative line -->
  <line x1="102" y1="60" x2="350" y2="60" stroke="url(#hmLine)" stroke-width="1"/>
  <!-- Tagline -->
  <text x="102" y="73" font-family="'Segoe UI',system-ui,sans-serif" font-size="10" font-weight="300" fill="#6A0039" opacity="0.6">Reinsurance · Risk Analytics · Capital Solutions</text>
</svg>
