<svg xmlns="http://www.w3.org/2000/svg" viewBox="12 12 393 76" width="1179" height="228">
  <defs>
    <radialGradient id="smg" cx="50%" cy="50%" r="50%">
      <stop offset="0%" stop-color="#FFB74D"/>
      <stop offset="100%" stop-color="#E65100"/>
    </radialGradient>
    <linearGradient id="smgl" x1="0" y1="0" x2="1" y2="0">
      <stop offset="0%" stop-color="#FF9800"/>
      <stop offset="50%" stop-color="#00BCD4"/>
      <stop offset="100%" stop-color="#FF9800" stop-opacity="0"/>
    </linearGradient>
  </defs>
  <rect x="14" y="14" width="72" height="72" rx="14" fill="#1A1A2E"/>
  <circle cx="50" cy="44" r="16" fill="url(#smg)"/>
  <!-- Warm rays -->
  <g stroke="#FFB74D" stroke-width="2.5" stroke-linecap="round" opacity="0.7">
    <line x1="50" y1="18" x2="50" y2="22"/>
    <line x1="50" y1="66" x2="50" y2="70"/>
    <line x1="31.6" y1="25.6" x2="34.4" y2="28.4"/>
    <line x1="65.6" y1="59.6" x2="68.4" y2="62.4"/>
  </g>
  <!-- Teal rays -->
  <g stroke="#00BCD4" stroke-width="2.5" stroke-linecap="round" opacity="0.7">
    <line x1="24" y1="44" x2="28" y2="44"/>
    <line x1="72" y1="44" x2="76" y2="44"/>
    <line x1="31.6" y1="62.4" x2="34.4" y2="59.6"/>
    <line x1="65.6" y1="28.4" x2="68.4" y2="25.6"/>
  </g>
  <rect x="30" y="76" width="40" height="3" rx="1.5" fill="#FF9800" opacity="0.4"/>
  <text x="102" y="42" font-family="'Segoe UI',system-ui,sans-serif" font-weight="700" font-size="30" fill="#E65100" letter-spacing="-0.5">SOLIS</text>
  <text x="192" y="42" font-family="'Segoe UI',system-ui,sans-serif" font-weight="300" font-size="30" fill="#00BCD4">Tech</text>
  <text x="102" y="64" font-family="'Segoe UI',system-ui,sans-serif" font-weight="400" font-size="14" fill="#FFB74D">Renewable Energy &amp; Smart Grid Solutions</text>
  <rect x="102" y="72" width="280" height="1.5" rx="0.75" fill="url(#smgl)"/>
</svg>
