<svg xmlns="http://www.w3.org/2000/svg" viewBox="0 0 60 60" width="60" height="60">
  <circle cx="30" cy="30" r="30" fill="#f29400"/>
  <g transform="translate(3 -8)" fill="#fff">
    <path d="M20.29,49.2c-.31.15-.1,0-.65.21a4.34,4.34,0,0,1-1.92.35,2.55,2.55,0,0,1-1-.47,1.91,1.91,0,0,1-.82-1.48,23.23,23.23,0,0,0-.11-2.63c-.15-.69-.75-1.28-2.09-1.33a9.1,9.1,0,0,0-3.7.85c-1.27.47.14.35,1.66-.06.8-.22,2.32-.56,2.93,0a1.29,1.29,0,0,1,.36,1A8.2,8.2,0,0,1,14.84,47a4.37,4.37,0,0,0,.4,2.31,3,3,0,0,0,1.93,1.1,3.86,3.86,0,0,0,3-.77A.42.42,0,0,0,20.29,49.2Z" stroke="#fff" stroke-miterlimit="10" stroke-width="1"/>
    <path d="M25.73,42.86c1.29-2.53,5.13-8.1,4-6.49s5-7.19,7.66-10.18a13.55,13.55,0,0,1,5,4A126,126,0,0,1,28.88,44.68c-.35.31-4.66,4.11-5.31,3.7C23.16,47.66,24.59,45.11,25.73,42.86Z"/>
    <path d="M44.62,18.12a75.36,75.36,0,0,0-6.57,7.27,14.07,14.07,0,0,1,5,3.9c1.38-1.57,3.22-3.81,4.72-5.4a1.3,1.3,0,0,1-.14,1c-1,1.5-3.13,3.7-3.81,4.73-.36.53,0,.91.46,1a66.67,66.67,0,0,0,5.39-5.76,2.68,2.68,0,0,0,.11-.85,20.52,20.52,0,0,0-4.94-5.8S44.64,18.1,44.62,18.12Z"/>
  </g>
</svg>
