<svg id="bd47dde5-d43f-4e87-bd56-45e41db1c5c5" data-name="af0c1ee6-8051-4056-81f3-1c829acad62c" xmlns="http://www.w3.org/2000/svg" xmlns:xlink="http://www.w3.org/1999/xlink" width="271.39" height="69.23" viewBox="0 0 271.39 69.23"><defs><linearGradient id="f3d820f6-795c-4d8f-8205-5461f5a32946" x1="26.98" y1="18.52" x2="26.98" y2="72.46" gradientTransform="matrix(1, 0, 0, -1, -0.01, 72.69)" gradientUnits="userSpaceOnUse"><stop offset="0" stop-color="#f8aa09"/><stop offset="1" stop-color="#e28805"/></linearGradient></defs><title>inSign_blank</title><g style="isolation:isolate"><g style="isolation:isolate"><path d="M86.9,16.48a5.32,5.32,0,1,1-5.32-5.16A5.07,5.07,0,0,1,86.9,16.48Zm-10.09,48V27h9.47V64.46Z" transform="translate(0 -11.32)" fill="#e48803"/><path d="M96.52,38.12c0-4.32-.15-7.93-.31-11.17h8.24l.46,5.62h.24a13.77,13.77,0,0,1,12-6.47c6.55,0,13.32,4.24,13.32,16.1V64.46H121V43.28c0-5.39-2-9.48-7.16-9.48a7.94,7.94,0,0,0-7.39,5.55,8.71,8.71,0,0,0-.47,3V64.46H96.52Z" transform="translate(0 -11.32)" fill="#e48803"/></g><g style="isolation:isolate"><path d="M140.42,56.29a23.7,23.7,0,0,0,12,3.39c6.86,0,10.86-3.62,10.86-8.86,0-4.85-2.77-7.62-9.78-10.32-8.47-3-13.71-7.39-13.71-14.7,0-8.09,6.7-14.1,16.79-14.1a23.57,23.57,0,0,1,11.47,2.54l-1.84,5.47a20.76,20.76,0,0,0-9.86-2.46c-7.09,0-9.78,4.23-9.78,7.78,0,4.85,3.16,7.23,10.32,10,8.78,3.39,13.24,7.62,13.24,15.25,0,8-5.93,15-18.17,15-5,0-10.47-1.54-13.25-3.39Z" transform="translate(0 -11.32)"/><path d="M186.62,16.71a4.2,4.2,0,0,1-8.39,0,4.13,4.13,0,0,1,4.23-4.24A4,4,0,0,1,186.62,16.71Zm-7.55,47.75V27.18h6.78V64.46Z" transform="translate(0 -11.32)"/></g><g style="isolation:isolate"><path d="M228.89,59.06c0,8.55-1.69,13.79-5.31,17-3.62,3.39-8.86,4.47-13.56,4.47-4.47,0-9.39-1.08-12.4-3.08l1.7-5.16a21,21,0,0,0,10.93,2.93c6.93,0,12-3.62,12-13V58.06h-.16C220,61.53,216,64.3,210.25,64.3c-9.24,0-15.86-7.85-15.86-18.17,0-12.63,8.24-19.8,16.79-19.8,6.47,0,10,3.39,11.63,6.47H223l.31-5.62h5.93c-.16,2.7-.31,5.7-.31,10.24Zm-6.7-17.17a9.59,9.59,0,0,0-.39-3.08,9.75,9.75,0,0,0-9.47-7.16c-6.47,0-11.09,5.47-11.09,14.09,0,7.32,3.7,13.4,11,13.4a9.91,9.91,0,0,0,9.4-6.93,11.65,11.65,0,0,0,.54-3.62Z" transform="translate(0 -11.32)"/></g><g style="isolation:isolate"><path d="M239.67,37.27c0-3.85-.08-7-.31-10.09h6l.39,6.16h.15a13.72,13.72,0,0,1,12.33-7c5.15,0,13.16,3.09,13.16,15.87V64.46h-6.77V43c0-6-2.24-11-8.63-11A10,10,0,0,0,246.44,42V64.46h-6.77Z" transform="translate(0 -11.32)"/></g></g><circle cx="26.97" cy="27.2" r="26.97" fill="url(#f3d820f6-795c-4d8f-8205-5461f5a32946)"/><path d="M20.29,49.2c-.31.15-.1,0-.65.21a4.34,4.34,0,0,1-1.92.35,2.55,2.55,0,0,1-1-.47,1.91,1.91,0,0,1-.82-1.48,23.23,23.23,0,0,0-.11-2.63c-.15-.69-.75-1.28-2.09-1.33a9.1,9.1,0,0,0-3.7.85c-1.27.47.14.35,1.66-.06.8-.22,2.32-.56,2.93,0a1.29,1.29,0,0,1,.36,1A8.2,8.2,0,0,1,14.84,47a4.37,4.37,0,0,0,.4,2.31,3,3,0,0,0,1.93,1.1,3.86,3.86,0,0,0,3-.77A.42.42,0,0,0,20.29,49.2Z" transform="translate(0 -11.32)" fill="#fff" stroke="#fff" stroke-miterlimit="10" stroke-width="1"/><path d="M25.73,42.86c1.29-2.53,5.13-8.1,4-6.49s5-7.19,7.66-10.18a13.55,13.55,0,0,1,5,4A126,126,0,0,1,28.88,44.68c-.35.31-4.66,4.11-5.31,3.7C23.16,47.66,24.59,45.11,25.73,42.86Z" transform="translate(0 -11.32)" fill="#fff"/><path d="M44.62,18.12a75.36,75.36,0,0,0-6.57,7.27,14.07,14.07,0,0,1,5,3.9c1.38-1.57,3.22-3.81,4.72-5.4a1.3,1.3,0,0,1-.14,1c-1,1.5-3.13,3.7-3.81,4.73-.36.53,0,.91.46,1a66.67,66.67,0,0,0,5.39-5.76,2.68,2.68,0,0,0,.11-.85,20.52,20.52,0,0,0-4.94-5.8S44.64,18.1,44.62,18.12Z" transform="translate(0 -11.32)" fill="#fff"/></svg>