<svg xmlns="http://www.w3.org/2000/svg" viewBox="0 0 595 130">
  <defs>
    <linearGradient id="mo-bg" x1="0" y1="0" x2="1" y2="0.5">
      <stop offset="0%" stop-color="#212121"/>
      <stop offset="100%" stop-color="#212121"/>
    </linearGradient>
  </defs>
  <!-- Background -->
  <rect width="595" height="130" fill="url(#mo-bg)"/>
  <!-- Geometric mosaic tiles in background -->
  <g opacity="0.06">
    <rect x="10" y="10" width="20" height="20" fill="#1976D2"/>
    <rect x="32" y="10" width="20" height="20" fill="#F57C00"/>
    <rect x="10" y="32" width="20" height="20" fill="#F57C00"/>
    <rect x="32" y="32" width="20" height="20" fill="#1976D2"/>
    <rect x="54" y="10" width="20" height="20" fill="#1976D2"/>
    <rect x="54" y="32" width="20" height="20" fill="#F57C00"/>
    <rect x="10" y="54" width="20" height="20" fill="#1976D2"/>
    <rect x="32" y="54" width="20" height="20" fill="#F57C00"/>
    <rect x="54" y="54" width="20" height="20" fill="#1976D2"/>
  </g>
  <g opacity="0.04">
    <rect x="430" y="15" width="18" height="18" fill="#F57C00"/>
    <rect x="450" y="15" width="18" height="18" fill="#1976D2"/>
    <rect x="470" y="15" width="18" height="18" fill="#F57C00"/>
    <rect x="490" y="15" width="18" height="18" fill="#1976D2"/>
    <rect x="510" y="15" width="18" height="18" fill="#F57C00"/>
    <rect x="530" y="15" width="18" height="18" fill="#1976D2"/>
    <rect x="550" y="15" width="18" height="18" fill="#F57C00"/>
    <rect x="430" y="35" width="18" height="18" fill="#1976D2"/>
    <rect x="450" y="35" width="18" height="18" fill="#F57C00"/>
    <rect x="470" y="35" width="18" height="18" fill="#1976D2"/>
    <rect x="490" y="35" width="18" height="18" fill="#F57C00"/>
    <rect x="510" y="35" width="18" height="18" fill="#1976D2"/>
    <rect x="530" y="35" width="18" height="18" fill="#F57C00"/>
    <rect x="550" y="35" width="18" height="18" fill="#1976D2"/>
    <rect x="430" y="55" width="18" height="18" fill="#F57C00"/>
    <rect x="450" y="55" width="18" height="18" fill="#1976D2"/>
    <rect x="470" y="55" width="18" height="18" fill="#F57C00"/>
    <rect x="490" y="55" width="18" height="18" fill="#1976D2"/>
    <rect x="510" y="55" width="18" height="18" fill="#F57C00"/>
    <rect x="530" y="55" width="18" height="18" fill="#1976D2"/>
    <rect x="550" y="55" width="18" height="18" fill="#F57C00"/>
    <rect x="430" y="75" width="18" height="18" fill="#1976D2"/>
    <rect x="450" y="75" width="18" height="18" fill="#F57C00"/>
    <rect x="470" y="75" width="18" height="18" fill="#1976D2"/>
    <rect x="490" y="75" width="18" height="18" fill="#F57C00"/>
    <rect x="510" y="75" width="18" height="18" fill="#1976D2"/>
    <rect x="530" y="75" width="18" height="18" fill="#F57C00"/>
    <rect x="550" y="75" width="18" height="18" fill="#1976D2"/>
    <rect x="430" y="95" width="18" height="18" fill="#F57C00"/>
    <rect x="450" y="95" width="18" height="18" fill="#1976D2"/>
    <rect x="470" y="95" width="18" height="18" fill="#F57C00"/>
    <rect x="490" y="95" width="18" height="18" fill="#1976D2"/>
    <rect x="510" y="95" width="18" height="18" fill="#F57C00"/>
    <rect x="530" y="95" width="18" height="18" fill="#1976D2"/>
    <rect x="550" y="95" width="18" height="18" fill="#F57C00"/>
  </g>
  <!-- Top accent bar - dual color -->
  <rect x="0" y="0" width="300" height="3" fill="#1976D2"/>
  <rect x="300" y="0" width="295" height="3" fill="#F57C00"/>
  <!-- Left colored bar -->
  <rect x="0" y="0" width="8" height="130" fill="#1976D2" opacity="0.6"/>
  <rect x="8" y="0" width="4" height="130" fill="#F57C00" opacity="0.4"/>
  <!-- Company name -->
  <text x="90" y="55" font-family="system-ui, sans-serif" font-size="30" font-weight="bold" fill="#FFFFFF" letter-spacing="3">Mosaic Labs</text>
  <!-- Subtitle -->
  <text x="92" y="78" font-family="system-ui, sans-serif" font-size="10.5" fill="#F57C00" letter-spacing="2">Research · Innovation · Technology Transfer</text>
  <!-- Scientific molecule-like decoration -->
  <g opacity="0.2">
    <circle cx="92" cy="100" r="3" fill="#1976D2"/>
    <circle cx="110" cy="95" r="2.5" fill="#F57C00"/>
    <circle cx="125" cy="102" r="2" fill="#1976D2"/>
    <line x1="95" y1="100" x2="107" y2="96" stroke="#FFFFFF" stroke-width="0.5" opacity="0.5"/>
    <line x1="113" y1="95" x2="123" y2="101" stroke="#FFFFFF" stroke-width="0.5" opacity="0.5"/>
  </g>
  <!-- Bottom line -->
  <rect x="0" y="128" width="595" height="2" fill="#1976D2" opacity="0.3"/>
</svg>